<?xml version="1.0" encoding="UTF-8"?>
<svg id="Layer_1" xmlns="http://www.w3.org/2000/svg" version="1.1" viewBox="0 0 507.09 163.52">
  <!-- Generator: Adobe Illustrator 29.6.1, SVG Export Plug-In . SVG Version: 2.1.1 Build 9)  -->
  <defs>
    <style>
      .st0 {
        fill: #fede00;
      }
    </style>
  </defs>
  <path class="st0" d="M11.62,75c.98-14.84,10.92-28.14,31.22-28.14h10.5c20.86,0,31.22,15.26,31.22,30.38v58.66h-49.7c-15.68,0-24.08-12.32-24.08-26.88s8.68-25.76,23.66-25.76h29.96v-1.82c0-8.4-1.68-14.7-14.14-14.7h-4.34c-9.52,0-12.6,2.66-14.14,8.26H11.62ZM35.56,117.84h28.84v-17.78h-28.84c-2.94,0-6.02,2.94-6.02,8.96s3.08,8.82,6.02,8.82Z"/>
  <path class="st0" d="M157.78,48.54h2.38v21.7h-2.38c-16.94,0-37.38,15.12-37.38,28.56v37.1h-21.7V46.16h21.7v18.9c6.72-10.92,22.54-16.52,37.38-16.52Z"/>
  <path class="st0" d="M220.64,108.18h20.72c-1.96,16.94-13.44,27.72-31.78,27.72h-7.14c-20.3,0-32.9-12.88-32.9-32.62v-23.94c0-19.74,12.6-32.48,32.9-32.48h7.14c18.76,0,30.24,10.78,31.92,28.14h-20.72c-1.26-5.04-5.32-8.12-11.2-8.12h-7.14c-7.42,0-12.88,5.46-12.88,13.02v22.82c0,7.56,5.46,13.02,12.88,13.02h7.14c5.6,0,9.8-2.8,11.06-7.56Z"/>
  <path class="st0" d="M249.76,75c.98-14.84,10.92-28.14,31.22-28.14h10.5c20.86,0,31.22,15.26,31.22,30.38v58.66h-49.7c-15.68,0-24.08-12.32-24.08-26.88s8.68-25.76,23.66-25.76h29.96v-1.82c0-8.4-1.68-14.7-14.14-14.7h-4.34c-9.52,0-12.6,2.66-14.14,8.26h-20.16ZM273.7,117.84h28.84v-17.78h-28.84c-2.94,0-6.02,2.94-6.02,8.96s3.08,8.82,6.02,8.82Z"/>
  <path class="st0" d="M367.22,135.9c-20.3,0-32.76-12.88-32.76-32.62v-23.94c0-19.74,12.46-32.48,32.76-32.48h7.14c4.76,0,9.24.7,13.16,2.1V16.76h19.74v119.14h-40.04ZM387.52,115.74v-35.84c0-7.56-5.74-13.02-13.16-13.02h-7.14c-7.42,0-13.44,5.46-13.44,13.02v22.82c0,7.56,6.02,13.02,13.44,13.02h20.3Z"/>
  <path class="st0" d="M418.03,78.5c0-17.08,14.42-31.64,28.7-31.64h19.88c18.2,0,28.7,16.94,28.7,30.94v22.54h-56.7v4.76c0,8.4,5.32,11.48,12.88,11.48h40.74v19.6h-45.36c-15.82,0-28.84-13.02-28.84-30.52v-27.16ZM438.89,83.82h36.12v-.98c0-8.82-5.18-15.68-12.88-15.68h-10.92c-7.42,0-12.32,7.42-12.32,15.68v.98Z"/>
</svg>