<?xml version="1.0" encoding="UTF-8"?>
<svg id="Layer_1" xmlns="http://www.w3.org/2000/svg" version="1.1" viewBox="0 0 507.09 181.13">
  <!-- Generator: Adobe Illustrator 29.6.1, SVG Export Plug-In . SVG Version: 2.1.1 Build 9)  -->
  <g>
    <path style="fill-opacity: 1; fill: rgb(255, 222, 6);" d="M296.66,143.99c7.01,0,11.28,4.37,11.28,11.14v8.21c0,6.77-4.27,11.19-11.28,11.19h-2.45c-6.96,0-11.23-4.42-11.23-11.19v-8.21c0-6.77,4.27-11.14,11.23-11.14h2.45ZM294.22,150.85c-2.5,0-4.42,1.87-4.42,4.46v7.83c0,2.59,1.92,4.46,4.42,4.46h2.45c2.54,0,4.42-1.87,4.42-4.46v-7.83c0-2.59-1.87-4.46-4.42-4.46h-2.45Z"/>
    <path style="fill-opacity: 1; fill: rgb(255, 222, 6);" d="M324.89,150.8c-4.22,0-5.04,2.16-5.04,5.04v18.67h-7.06v-30.53h7.06v.77c1.3-.48,2.83-.77,4.46-.77h3.12c7.1,0,10.85,5.23,10.85,10.42v20.11h-7.06v-18.67c0-2.88-.67-5.04-4.9-5.04h-1.44Z"/>
    <path style="fill-opacity: 1; fill: rgb(255, 222, 6);" d="M375.58,140.1h-2.16c-2.74,0-4.61,1.87-4.61,4.46v1.34h6.77v6.87h-6.77v21.79h-6.29v-21.79h-5.42v-6.87h5.42v-1.06c0-6.77,3.98-11.19,10.9-11.19h2.16v6.43Z"/>
    <path style="fill-opacity: 1; fill: rgb(255, 222, 6);" d="M393.19,143.99c6.96,0,11.28,4.37,11.28,11.14v8.21c0,6.77-4.32,11.19-11.28,11.19h-2.45c-6.96,0-11.23-4.42-11.23-11.19v-29.67h7.06v11.09c1.39-.48,2.98-.77,4.7-.77h1.92ZM390.74,150.85c-2.5,0-4.13,1.78-4.18,4.27v8.02c0,2.59,1.63,4.46,4.18,4.46h2.45c2.54,0,4.32-1.87,4.32-4.46v-7.83c0-2.59-1.78-4.46-4.32-4.46h-2.45Z"/>
    <path style="fill-opacity: 1; fill: rgb(255, 222, 6);" d="M421.65,150.8c-4.22,0-5.04,2.16-5.04,5.04v18.67h-7.06v-30.53h7.06v.77c1.3-.48,2.83-.77,4.46-.77h3.12c7.1,0,10.85,5.23,10.85,10.42v20.11h-7.06v-18.67c0-2.88-.67-5.04-4.9-5.04h-1.44Z"/>
    <path style="fill-opacity: 1; fill: rgb(255, 222, 6);" d="M438.84,154.84c0-5.86,4.94-10.85,9.84-10.85h6.82c6.24,0,9.84,5.81,9.84,10.61v7.73h-19.44v1.63c0,2.88,1.82,3.94,4.42,3.94h13.97v6.72h-15.55c-5.42,0-9.89-4.46-9.89-10.46v-9.31ZM445.99,156.66h12.38v-.34c0-3.02-1.78-5.38-4.42-5.38h-3.74c-2.54,0-4.22,2.54-4.22,5.38v.34Z"/>
    <path style="fill-opacity: 1; fill: rgb(255, 222, 6);" d="M482.66,143.99c7.01,0,11.28,4.37,11.28,11.14v8.21c0,6.77-4.27,11.19-11.28,11.19h-2.45c-6.96,0-11.23-4.42-11.23-11.19v-8.21c0-6.77,4.27-11.14,11.23-11.14h2.45ZM480.21,150.85c-2.5,0-4.42,1.87-4.42,4.46v7.83c0,2.59,1.92,4.46,4.42,4.46h2.45c2.54,0,4.42-1.87,4.42-4.46v-7.83c0-2.59-1.87-4.46-4.42-4.46h-2.45Z"/>
  </g>
  <g>
    <path style="fill-opacity: 1; fill: rgb(255, 222, 6);" d="M12.12,65.41c.98-14.84,10.92-28.14,31.22-28.14h10.5c20.86,0,31.22,15.26,31.22,30.38v58.66h-49.7c-15.68,0-24.08-12.32-24.08-26.88s8.68-25.76,23.66-25.76h29.96v-1.82c0-8.4-1.68-14.7-14.14-14.7h-4.34c-9.52,0-12.6,2.66-14.14,8.26H12.12ZM36.06,108.25h28.84v-17.78h-28.84c-2.94,0-6.02,2.94-6.02,8.96s3.08,8.82,6.02,8.82Z"/>
    <path style="fill-opacity: 1; fill: rgb(255, 222, 6);" d="M158.27,38.95h2.38v21.7h-2.38c-16.94,0-37.38,15.12-37.38,28.56v37.1h-21.7V36.57h21.7v18.9c6.72-10.92,22.54-16.52,37.38-16.52Z"/>
    <path style="fill-opacity: 1; fill: rgb(255, 222, 6);" d="M221.13,98.59h20.72c-1.96,16.94-13.44,27.72-31.78,27.72h-7.14c-20.3,0-32.9-12.88-32.9-32.62v-23.94c0-19.74,12.6-32.48,32.9-32.48h7.14c18.76,0,30.24,10.78,31.92,28.14h-20.72c-1.26-5.04-5.32-8.12-11.2-8.12h-7.14c-7.42,0-12.88,5.46-12.88,13.02v22.82c0,7.56,5.46,13.02,12.88,13.02h7.14c5.6,0,9.8-2.8,11.06-7.56Z"/>
    <path style="fill-opacity: 1; fill: rgb(255, 222, 6);" d="M250.25,65.41c.98-14.84,10.92-28.14,31.22-28.14h10.5c20.86,0,31.22,15.26,31.22,30.38v58.66h-49.7c-15.68,0-24.08-12.32-24.08-26.88s8.68-25.76,23.66-25.76h29.96v-1.82c0-8.4-1.68-14.7-14.14-14.7h-4.34c-9.52,0-12.6,2.66-14.14,8.26h-20.16ZM274.19,108.25h28.84v-17.78h-28.84c-2.94,0-6.02,2.94-6.02,8.96s3.08,8.82,6.02,8.82Z"/>
    <path style="fill-opacity: 1; fill: rgb(255, 222, 6);" d="M367.71,126.31c-20.3,0-32.76-12.88-32.76-32.62v-23.94c0-19.74,12.46-32.48,32.76-32.48h7.14c4.76,0,9.24.7,13.16,2.1V7.17h19.74v119.14h-40.04ZM388.01,106.15v-35.84c0-7.56-5.74-13.02-13.16-13.02h-7.14c-7.42,0-13.44,5.46-13.44,13.02v22.82c0,7.56,6.02,13.02,13.44,13.02h20.3Z"/>
    <path style="fill-opacity: 1; fill: rgb(255, 222, 6);" d="M418.53,68.91c0-17.08,14.42-31.64,28.7-31.64h19.88c18.2,0,28.7,16.94,28.7,30.94v22.54h-56.7v4.76c0,8.4,5.32,11.48,12.88,11.48h40.74v19.6h-45.36c-15.82,0-28.84-13.02-28.84-30.52v-27.16ZM439.39,74.23h36.12v-.98c0-8.82-5.18-15.68-12.88-15.68h-10.92c-7.42,0-12.32,7.42-12.32,15.68v.98Z"/>
  </g>
</svg>