<?xml version="1.0" encoding="utf-8"?>
<!-- Generator: Adobe Illustrator 26.0.3, SVG Export Plug-In . SVG Version: 6.00 Build 0)  -->
<svg version="1.0" id="Layer_1" xmlns="http://www.w3.org/2000/svg" xmlns:xlink="http://www.w3.org/1999/xlink" x="0px" y="0px"
	 viewBox="0 0 860.5 570.3" style="enable-background:new 0 0 860.5 570.3;" xml:space="preserve">
<style type="text/css">
	.st0{fill:none;}
</style>
<g id="g3">
	<g id="g5">
		<g id="g7">
			<g id="g9">
				<polygon fill="#ffde06" id="polygon11" points="322.1,325.2 338.2,298.5 359.7,337.5 375.9,337.5 344.5,283.7 331.7,283.7 300.7,337.5 
					339.5,337.5 339.5,325.2 				"/>
				<polygon fill="#ffde06" id="polygon13" points="441,283.7 427.6,283.7 405.6,321.7 383.7,283.7 370.3,283.7 370.3,337.5 383.7,337.5 
					383.7,308.7 400.4,337.5 411,337.5 427.6,308.7 427.6,337.5 440.8,337.5 				"/>
				<path fill="#ffde06" id="path15" d="M302.4,305h-33.6v11.3h19.5v8.9h-34.9v-30.1h48.4v-11.7h-48.8c-10.6,0-13.9,3.2-13.9,13.4v27.1
					c0,10.2,3.3,13.3,13.9,13.3h35.4c10.6,0,13.9-3.1,13.9-13.3V305z"/>
				<path fill="#ffde06" id="path17" d="M558.8,283.7h-31.7c-10.6,0-13.9,3.2-13.9,13.4v27.1c0,10.2,3.3,13.4,13.9,13.4h31.7
					c10.6,0,13.9-3.2,13.9-13.4v-9.8h-14.5v10.9h-30.8v-29.9h30.8v9.8h14.5v-8C572.9,286.8,569.4,283.6,558.8,283.7L558.8,283.7z"/>
				<path fill="#ffde06" id="path19" d="M624.7,325.2h-31.5v-41.6h-14.5v40.5c0,10.2,3.3,13.4,13.9,13.4h32.5c10.6,0,13.9-3.2,13.9-13.4v-40.5
					h-14.5v41.5L624.7,325.2z"/>
				<path fill="#ffde06" id="path21" d="M698,309.8c3.4-1.5,5.6-5,5.4-8.7v-6.3c0-7.6-4.1-11.1-12.8-11.1h-45.1v53.8h42.1c11,0,16.5-3.7,16.5-11.3
					v-6.5C703.9,315.1,701.9,311.7,698,309.8L698,309.8z M660,294.4h26c4.1,0,4.3,0.9,4.3,2.4v4.8c0,1.5-0.2,2.4-4.3,2.4h-26V294.4z
					 M690.4,322.3c0,2.6-0.5,3.3-4.5,3.3h-26v-10.4h26c3.9,0,4.5,0.7,4.5,3.3V322.3z"/>
				<polygon fill="#ffde06" id="polygon23" points="723.9,295 764.4,295 764.4,283.7 709.3,283.7 709.3,337.5 764.9,337.5 764.9,325.2 723.9,325.2 
					723.9,315.2 747.5,315.2 747.5,303.9 723.9,303.9 				"/>
				<polygon fill="#ffde06" id="polygon25" points="461.8,295 502.4,295 502.4,283.7 447.3,283.7 447.3,337.5 502.8,337.5 502.8,325.2 461.8,325.2 
					461.8,315.2 485.5,315.2 485.5,303.9 461.8,303.9 				"/>
				<polygon fill="#ffde06" id="polygon27" points="593.7,227.3 583.1,227.3 583.1,268.8 591.1,268.8 591.1,236.5 607.2,268.8 615,268.8 615,227.3 
					607.2,227.3 607.2,253.8 				"/>
				<polygon fill="#ffde06" id="polygon29" points="403.2,227.3 403.2,253.8 389.6,227.3 379,227.3 379,268.8 386.8,268.8 386.8,236.5 403.2,268.8 
					411,268.8 411,227.3 				"/>
				<polygon fill="#ffde06" id="polygon31" points="274,227.3 274,253.8 260.7,227.3 250.1,227.3 250.1,268.8 257.9,268.8 257.9,236.5 274.2,268.8 
					281.8,268.8 281.8,227.3 				"/>
				<rect fill="#ffde06" id="rect33" x="326" y="227.3" width="8.9" height="41.4"/>
				<polygon fill="#ffde06" id="polygon35" points="481.3,227.4 446.2,227.4 446.2,233.9 459.6,233.9 459.6,268.8 468.1,268.8 468.1,233.9 
					481.3,233.9 				"/>
				<path fill="#ffde06" id="path37" d="M672.7,268.8c7.2,0,13.2-4.8,13.2-10.8v-20c0-5.9-5.9-10.8-13.2-10.8h-19.1v41.4h19.1V268.8z M661.4,233.8
					h11.1c2.8,0,5.6,2,5.6,4.6v19.5c0,2.8-3,4.5-5.6,4.5h-11.1V233.8z"/>
				<path fill="#ffde06" id="path39" d="M754.9,237.8c0-5.9-5.9-10.8-13.2-10.8h-6.9c-7.2,0-13.2,4.8-13.2,10.8v20.6c0,5.9,5.9,10.8,13.2,10.8h7
					c7.2,0,13.2-4.8,13.2-10.8v-20.6H754.9z M747.1,258.1c0,2.4-2.8,4.6-5.6,4.6h-6.5c-2.8,0-5.6-2-5.6-4.6v-20.2
					c0-2.6,2.8-4.6,5.6-4.6h6.5c2.8,0,5.6,2,5.6,4.6V258.1z"/>
				<path fill="#ffde06" id="path41" d="M513.9,258.1c0,5.8,5.6,10.4,12.4,10.6h18.2v-6.5h-17.4c-2.8,0-5.6-1.9-5.6-4.3v-7.4h23v-6.7h-23v-5.6
					c0-2.4,2.8-4.3,5.6-4.3h17.4v-6.7h-18c-7.1,0.2-12.8,4.8-12.8,10.6L513.9,258.1L513.9,258.1z"/>
			</g>
		</g>
		<rect id="rect43" x="239" y="227.1" class="st0" width="526" height="110.4"/>
		<rect id="rect45" x="65.5" y="206.3" class="st0" width="699.5" height="157.7"/>
		<g id="g47">
			<path fill="#ffde06" id="path49" d="M777.9,337.5h-2.6v-10h-3.7v-2.2h10v2.2h-3.7L777.9,337.5z"/>
			<path fill="#ffde06" id="path51" d="M794.8,337.5h-2.4v-10.2l0,0l-2.2,10.2h-2.6l-2.2-10.2l0,0v10.2h-2.2v-12.2h3.7l2.2,9.6l0,0l2.2-9.6h3.7
				v12.2H794.8z"/>
		</g>
	</g>
	<g id="g53">
		<g id="g55">
			<polygon fill="#ffde06" id="polygon57" points="100.6,305.7 131.5,323.5 131.5,287.9 100.6,270.1 			"/>
			<polygon fill="#ffde06" id="polygon59" points="65.5,249.9 87.2,262.3 87.2,313.4 131.5,339 131.5,364 65.5,326 			"/>
		</g>
		<g id="g61">
			<g id="g63">
				<polygon fill="#ffde06" id="polygon65" points="134.7,246.8 103.7,264.6 134.7,282.4 165.5,264.6 				"/>
			</g>
			<g id="g67">
				<polygon fill="#ffde06" id="polygon69" points="68.6,244.3 90.4,257 134.7,231.4 171.8,252.9 193.7,240.4 134.7,206.3 				"/>
			</g>
		</g>
		<polygon fill="#ffde06" id="polygon71" points="137.9,323.5 137.9,323.7 137.9,287.9 137.9,287.9 203.7,249.9 203.7,326 137.9,364 137.9,339 
			182,313.4 182,287.6 168.7,295.2 168.7,305.7 		"/>
	</g>
</g>
</svg>
