<?xml version="1.0" encoding="UTF-8"?>
<svg id="Layer_1" xmlns="http://www.w3.org/2000/svg" version="1.1" viewBox="0 0 821 160.93">
  <!-- Generator: Adobe Illustrator 29.6.1, SVG Export Plug-In . SVG Version: 2.1.1 Build 9)  -->
  <defs>
    <style>
      .st0 {
        fill: #ffde06;
      }
    </style>
  </defs>
  <g>
    <path style="fill:#ffde06" class="st0" d="M32.8,33.04H15.16V15.52h17.64v17.52ZM32.8,117.64H15.16V41.32h17.64v76.32Z"/>
    <path style="fill:#ffde06" class="st0" d="M122.67,58.36c-10.68,0-12.12,5.4-12.12,12.48v46.8h-17.64v-46.68c0-7.2-1.68-12.6-12.24-12.6h-3.6c-10.56,0-12.6,5.4-12.6,12.6v46.68h-17.64V41.32h17.64v2.28c3.72-1.44,7.92-2.28,12.48-2.28h6.48c7.92,0,14.28,2.64,18.72,6.72,4.68-4.08,11.16-6.72,19.2-6.72h7.68c17.88,0,27.12,13.08,27.12,26.04v50.28h-17.52v-46.68c0-7.2-1.68-12.6-12.24-12.6h-3.72Z"/>
    <path style="fill:#ffde06" class="st0" d="M166.48,65.44c.84-12.72,9.36-24.12,26.76-24.12h9c17.88,0,26.76,13.08,26.76,26.04v50.28h-42.6c-13.44,0-20.64-10.56-20.64-23.04s7.44-22.08,20.28-22.08h25.68v-1.56c0-7.2-1.44-12.6-12.12-12.6h-3.72c-8.16,0-10.8,2.28-12.12,7.08h-17.28ZM186.99,102.16h24.72v-15.24h-24.72c-2.52,0-5.16,2.52-5.16,7.68s2.64,7.56,5.16,7.56Z"/>
    <path style="fill:#ffde06" class="st0" d="M302.31,41.32v76.44c0,16.2-9.96,25.8-24.36,25.8h-34.32v-16.68h31.56c6,0,10.8-3.96,10.8-10.68v-.96h-22.32c-13.44,0-24.36-9.48-24.36-27v-19.92c0-17.52,10.92-27,24.36-27h38.64ZM285.87,58h-18.48c-6,0-10.92,5.52-10.92,12.12v16.2c0,6.72,4.92,12.24,10.92,12.24h18.48v-40.56Z"/>
    <path style="fill:#ffde06" class="st0" d="M312.15,68.44c0-14.64,12.36-27.12,24.6-27.12h17.04c15.6,0,24.6,14.52,24.6,26.52v19.32h-48.6v4.08c0,7.2,4.56,9.84,11.04,9.84h34.92v16.8h-38.88c-13.56,0-24.72-11.16-24.72-26.16v-23.28ZM330.03,73h30.96v-.84c0-7.56-4.44-13.44-11.04-13.44h-9.36c-6.36,0-10.56,6.36-10.56,13.44v.84Z"/>
    <path style="fill:#ffde06" class="st0" d="M425.07,117.64h-16.8l-23.16-76.32h16.68l14.64,48.36,14.28-48.36h16.8l-22.44,76.32Z"/>
    <path style="fill:#ffde06" class="st0" d="M474.75,33.04h-17.64V15.52h17.64v17.52ZM474.75,117.64h-17.64V41.32h17.64v76.32Z"/>
    <path style="fill:#ffde06" class="st0" d="M486.15,68.44c0-14.64,12.36-27.12,24.6-27.12h17.04c15.6,0,24.6,14.52,24.6,26.52v19.32h-48.6v4.08c0,7.2,4.56,9.84,11.04,9.84h34.92v16.8h-38.88c-13.56,0-24.72-11.16-24.72-26.16v-23.28ZM504.03,73h30.96v-.84c0-7.56-4.44-13.44-11.04-13.44h-9.36c-6.36,0-10.56,6.36-10.56,13.44v.84Z"/>
    <path style="fill:#ffde06" class="st0" d="M644.79,117.64h-16.92l-14.64-48.12-14.16,48.12h-16.8l-23.16-76.32h16.68l14.64,48.36,14.28-48.36h16.8l14.64,48.12,14.28-48.12h16.68l-22.32,76.32Z"/>
    <path style="fill:#ffde06" class="st0" d="M673.95,68.44c0-14.64,12.36-27.12,24.6-27.12h17.04c15.6,0,24.6,14.52,24.6,26.52v19.32h-48.6v4.08c0,7.2,4.56,9.84,11.04,9.84h34.92v16.8h-38.88c-13.56,0-24.72-11.16-24.72-26.16v-23.28ZM691.83,73h30.96v-.84c0-7.56-4.44-13.44-11.04-13.44h-9.36c-6.36,0-10.56,6.36-10.56,13.44v.84Z"/>
    <path style="fill:#ffde06" class="st0" d="M802.22,42.76h2.04v18.6h-2.04c-14.52,0-32.04,12.96-32.04,24.48v31.8h-18.6V40.72h18.6v16.2c5.76-9.36,19.32-14.16,32.04-14.16Z"/>
  </g>
  <text/>
</svg>